<?xml version="1.0" encoding="UTF-8"?>
<svg id="Layer_1" data-name="Layer 1" xmlns="http://www.w3.org/2000/svg" xmlns:xlink="http://www.w3.org/1999/xlink" viewBox="0 0 398.13 423.28">
  <defs>
    <style>
      .cls-1 {
        fill: url(#linear-gradient);
        stroke-width: 0px;
      }
    </style>
    <linearGradient id="linear-gradient" x1="60.19" y1="359.48" x2="341.09" y2="78.58" gradientUnits="userSpaceOnUse">
      <stop offset=".12" stop-color="#ff5330"/>
      <stop offset="1" stop-color="#ffbea3"/>
    </linearGradient>
  </defs>
  <path class="cls-1" d="M344,118.08l52.03,15.95c2.84.87,2.8,4.9-.06,5.71l-47.44,13.52c-2.66.76-4.83-2.21-3.3-4.52l22.45-33.73c1.57-2.37,5.25-1.4,5.45,1.44l2.96,41.45c.21,2.91-3.46,4.35-5.29,2.08l-30-37.19c-1.84-2.29.38-5.58,3.19-4.72ZM189.98,0c-5.55.13-11.35,19.87-12.06,39.01-.83,22.39,6.19,29.53,11.62,65.46,2.22,14.64-2.18,33.09-6.04,42.48-5.72,13.95-21.18,24.89-41.15,23.1-14.69-1.31-27.91-7.1-33.59-17.98-11.81-22.62-4.97-63.45-21.04-65.44-2.33-.29-4.38,8.26-10.18,21.75,0,0-4.94,11.47-16.41,31.02-14.08,23.98-21.1,25.07-34.07,44.88-15.49,23.63-20.81,45.46-21.99,50.6-2.82,12.26-12.75,54.94,6.57,69.64,8.73,6.65,23.24,8.03,46.66-.88,23.1-8.78,80.27-79.4,179.22-127.03,70.88-34.13,89.99-36.35,89.75-39.26-.5-5.97-33.77.96-55.12-18.16-3.11-2.79-19.81-27.56-24.24-33.72-5.54-7.7-6.74-7.59-16.57-18.99-7.99-9.26-16.1-18.68-22.89-29.61C194.64,14.69,194.8-.11,189.98,0ZM331.21,156.95c1.71,2.43-5.66,6.79-10.06,19-8.28,22.97,5.01,42.99,11.17,65.21,9.51,34.3.04,65.43-4.65,78.99-12.23,35.34-61.66,96.69-140.1,102.22-19.99,1.41-68.29,4.82-86.49-23.23-22.6-34.81,17.65-92.63,26.34-104.55.46-.62.77-1.05,1.18-1.6,26.73-36.02,57.11-56.29,77.15-69.11,23.56-15.07,119.24-75.77,125.47-66.92Z"/>
</svg>