<?xml version="1.0" encoding="utf-8"?>
<!-- Generator: Adobe Illustrator 28.1.0, SVG Export Plug-In . SVG Version: 6.00 Build 0)  -->
<svg version="1.1" id="Layer_1" xmlns="http://www.w3.org/2000/svg" xmlns:xlink="http://www.w3.org/1999/xlink" x="0px" y="0px"
	 viewBox="0 0 1000 1000" style="enable-background:new 0 0 1000 1000;" xml:space="preserve">
<style type="text/css">
	.st0{fill:url(#SVGID_1_);}
</style>
<g>
	<g>
		<linearGradient id="SVGID_1_" gradientUnits="userSpaceOnUse" x1="371.2214" y1="832.7834" x2="621.6304" y2="582.3744">
			<stop  offset="0" style="stop-color:#FF2700"/>
			<stop  offset="1" style="stop-color:#FF7251"/>
		</linearGradient>
		<path class="st0" d="M290,671.9c0-4.3,1.7-7.8,5-10.2c3.3-2.5,8.1-3.7,14.1-3.7v79.6c0,4.4-1.7,7.9-5,10.3
			c-3.3,2.4-8.1,3.6-14.1,3.6V671.9z M364.1,751.6c7.7,0,14.6-1.3,20.6-3.9c6-2.6,10.7-6.3,14-11c3.3-4.7,5-10,5-16v-9.6
			c0-2.6-0.8-4.7-2.5-6.3c-1.7-1.6-3.8-2.4-6.4-2.4h-31.7c0,4.4,1.1,8,3.3,10.8c2.2,2.8,5.1,4.2,8.7,4.2h9.5v3
			c0,4.3-1.9,7.9-5.7,10.7c-3.8,2.8-8.8,4.2-14.9,4.2c-6.3,0-11.5-1.8-15.4-5.4c-4-3.6-5.9-8.3-5.9-14v-22.2
			c0-5.6,1.9-10.3,5.7-13.8c3.8-3.6,8.8-5.3,14.9-5.3c6.2,0,11.2,1.3,15.1,4s5.9,6.1,5.9,10.2c0,2.5-0.1,4.7-0.4,6.5
			c2.2,0.6,4.4,0.9,6.6,0.9c3.9,0,7-1,9.3-2.9c2.3-2,3.4-4.6,3.4-8c0-5.3-1.7-10-5-14.1c-3.3-4.1-8.1-7.3-14.1-9.6
			c-6.1-2.3-13-3.5-20.7-3.5s-14.6,1.5-20.7,4.5c-6,3-10.7,7.2-14.1,12.6c-3.3,5.4-5,11.6-5,18.5v22.2c0,7,1.7,13.1,5.2,18.6
			c3.4,5.4,8.2,9.7,14.4,12.7C349.3,750.1,356.3,751.6,364.1,751.6z M415.4,751.6c6.2,0,10.9-1.2,14.1-3.5c3.2-2.3,4.8-5.8,4.8-10.3
			V692l-5.9-9.8l1.4-1.2l44.6,70.5c2.5,0,4.9-0.6,7.2-1.8c2.3-1.2,4.1-2.7,5.4-4.7s2-4,2-6.2v-67.1c0-4.5-1.6-8-4.8-10.3
			c-3.2-2.3-7.9-3.5-14.1-3.5v55.3l5.9,9.8l-1.4,1.2L432.8,658c-5.3,0-9.5,1.4-12.6,4c-3.1,2.7-4.7,6.3-4.7,11V751.6z M506,751.6
			c6.1,0,10.8-1.2,14.1-3.6c3.3-2.4,5-5.9,5-10.3V658c-6.1,0-10.8,1.2-14.1,3.7c-3.3,2.5-5,5.9-5,10.2V751.6z M569.6,751.6
			c6.3,0,11-1.2,14.3-3.5c3.3-2.3,4.9-5.8,4.9-10.3v-62h16.3c10,0,15-5.5,15-16.6h-66.9c-10,0-15,5.5-15,16.6h31.4V751.6z
			 M630.5,741.7c0,2.5,0.9,4.6,2.8,6.3s4.1,2.5,6.8,2.5H701c0-5.7-1-9.9-2.9-12.5c-1.9-2.6-5-3.9-9.1-3.9h-39.4v-21.4h22
			c4.3,0,7.3-1.3,9.3-3.9c1.9-2.6,2.9-6.8,2.9-12.5h-34.2v-20.6h36.6c4.3,0,7.3-1.3,9.3-3.9c1.9-2.6,2.9-6.8,2.9-12.5h-58.3
			c-2.7,0-5,0.8-6.8,2.5c-1.9,1.7-2.8,3.8-2.8,6.2V741.7z"/>
	</g>
</g>
</svg>
