<?xml version="1.0" encoding="utf-8"?>
<!-- Generator: Adobe Illustrator 28.1.0, SVG Export Plug-In . SVG Version: 6.00 Build 0)  -->
<svg version="1.1" id="Layer_1" xmlns="http://www.w3.org/2000/svg" xmlns:xlink="http://www.w3.org/1999/xlink" x="0px" y="0px"
	 viewBox="0 0 595.28 841.89" style="enable-background:new 0 0 595.28 841.89;" xml:space="preserve">
<g>
	<path d="M453.3,262.76l52.03,15.95c2.84,0.87,2.8,4.9-0.06,5.71l-47.44,13.52c-2.66,0.76-4.83-2.21-3.3-4.52l22.45-33.73
		c1.57-2.37,5.25-1.4,5.45,1.44l2.96,41.45c0.21,2.91-3.46,4.35-5.29,2.08l-30-37.19C448.26,265.19,450.49,261.9,453.3,262.76z
		 M299.28,144.68c-5.55,0.13-11.35,19.87-12.06,39.01c-0.83,22.39,6.19,29.53,11.62,65.46c2.22,14.64-2.18,33.09-6.04,42.48
		c-5.72,13.95-21.18,24.89-41.15,23.1c-14.69-1.31-27.91-7.1-33.59-17.98c-11.81-22.62-4.97-63.45-21.04-65.44
		c-2.33-0.29-4.38,8.26-10.18,21.75c0,0-4.94,11.47-16.41,31.02c-14.08,23.98-21.1,25.07-34.07,44.88
		c-15.49,23.63-20.81,45.46-21.99,50.6c-2.82,12.26-12.75,54.94,6.57,69.64c8.73,6.65,23.24,8.03,46.66-0.88
		c23.1-8.78,80.27-79.4,179.22-127.03c70.88-34.13,89.99-36.35,89.75-39.26c-0.5-5.97-33.77,0.96-55.12-18.16
		c-3.11-2.79-19.81-27.56-24.24-33.72c-5.54-7.7-6.74-7.59-16.57-18.99c-7.99-9.26-16.1-18.68-22.89-29.61
		C303.94,159.36,304.1,144.57,299.28,144.68z M440.51,301.62c1.71,2.43-5.66,6.79-10.06,19c-8.28,22.97,5.01,42.99,11.17,65.21
		c9.51,34.3,0.04,65.43-4.65,78.99c-12.23,35.34-61.66,96.69-140.1,102.22c-19.99,1.41-68.29,4.82-86.49-23.23
		c-22.6-34.81,17.65-92.63,26.34-104.55c0.46-0.62,0.77-1.05,1.18-1.6c26.73-36.02,57.11-56.29,77.15-69.11
		C338.6,353.47,434.29,292.77,440.51,301.62z"/>
</g>
</svg>
