<?xml version="1.0" encoding="utf-8"?>
<!-- Generator: Adobe Illustrator 28.1.0, SVG Export Plug-In . SVG Version: 6.00 Build 0)  -->
<svg version="1.1" id="Layer_1" xmlns="http://www.w3.org/2000/svg" xmlns:xlink="http://www.w3.org/1999/xlink" x="0px" y="0px"
	 viewBox="90 140 420 560" style="enable-background:new 0 0 595.28 841.89;" xml:space="preserve">
<style type="text/css">
	.st0{fill:url(#SVGID_1_);}
</style>
<g>
	<linearGradient id="SVGID_1_" gradientUnits="userSpaceOnUse" x1="100.5398" y1="710.9793" x2="519.33" y2="292.1891">
		<stop  offset="0" style="stop-color:#EE3424"/>
		<stop  offset="1" style="stop-color:#FBBDA4"/>
	</linearGradient>
	<path class="st0" d="M87.51,618.3c0-4.35,1.67-7.76,5.02-10.23c3.35-2.48,8.06-3.72,14.14-3.72V684c0,4.43-1.68,7.87-5.02,10.3
		c-3.35,2.43-8.06,3.65-14.14,3.65V618.3z M161.55,697.94c7.73,0,14.6-1.3,20.59-3.91c6-2.61,10.66-6.26,14.01-10.95
		c3.34-4.69,5.02-10.04,5.02-16.03v-9.65c0-2.61-0.83-4.71-2.48-6.32c-1.65-1.61-3.78-2.41-6.39-2.41h-31.68
		c0,4.43,1.1,8.04,3.32,10.82c2.21,2.78,5.1,4.17,8.67,4.17h9.52v3c0,4.35-1.91,7.91-5.74,10.69c-3.83,2.78-8.78,4.17-14.86,4.17
		c-6.35,0-11.5-1.8-15.45-5.41c-3.96-3.6-5.93-8.28-5.93-14.01v-22.16c0-5.65,1.91-10.25,5.74-13.82c3.82-3.56,8.78-5.35,14.86-5.35
		c6.17,0,11.21,1.33,15.12,3.98c3.91,2.65,5.87,6.06,5.87,10.23c0,2.52-0.13,4.7-0.39,6.52c2.17,0.61,4.39,0.91,6.65,0.91
		c3.91,0,6.99-0.98,9.25-2.93s3.39-4.63,3.39-8.02c0-5.3-1.67-9.99-5.01-14.08c-3.35-4.08-8.06-7.28-14.14-9.58
		c-6.09-2.3-12.99-3.45-20.73-3.45c-7.74,0-14.62,1.5-20.66,4.5c-6.04,3-10.74,7.19-14.08,12.58c-3.35,5.39-5.02,11.56-5.02,18.51
		v22.16c0,6.96,1.72,13.15,5.15,18.58c3.43,5.43,8.23,9.67,14.4,12.71C146.73,696.42,153.73,697.94,161.55,697.94z M212.91,697.94
		c6.17,0,10.86-1.17,14.08-3.52c3.21-2.34,4.82-5.78,4.82-10.3v-45.75l-5.87-9.78l1.44-1.17l44.58,70.52c2.52,0,4.91-0.59,7.17-1.76
		c2.26-1.17,4.06-2.74,5.41-4.69c1.35-1.96,2.02-4.02,2.02-6.19v-67.13c0-4.52-1.61-7.95-4.82-10.3c-3.22-2.35-7.91-3.52-14.08-3.52
		v55.27l5.87,9.78l-1.44,1.17l-41.85-66.22c-5.3,0-9.51,1.35-12.65,4.04c-3.13,2.69-4.69,6.34-4.69,10.95V697.94z M303.5,697.94
		c6.08,0,10.8-1.22,14.14-3.65c3.35-2.43,5.02-5.87,5.02-10.3v-79.65c-6.09,0-10.8,1.24-14.14,3.72c-3.35,2.48-5.02,5.89-5.02,10.23
		V697.94z M367.12,697.94c6.26,0,11.01-1.17,14.27-3.52c3.26-2.34,4.89-5.78,4.89-10.3v-62.05h16.29c9.99,0,14.99-5.52,14.99-16.56
		h-66.87c-9.99,0-14.99,5.52-14.99,16.56h31.42V697.94z M427.99,688.04c0,2.52,0.93,4.61,2.8,6.26c1.87,1.65,4.15,2.48,6.84,2.48
		h60.88c0-5.74-0.96-9.91-2.87-12.51c-1.91-2.61-4.95-3.91-9.13-3.91h-39.36v-21.38h22.03c4.26,0,7.34-1.3,9.25-3.91
		c1.91-2.61,2.87-6.78,2.87-12.51h-34.15v-20.6h36.63c4.26,0,7.34-1.3,9.26-3.91c1.91-2.61,2.86-6.78,2.86-12.51h-58.27
		c-2.69,0-4.97,0.85-6.84,2.54c-1.87,1.69-2.8,3.76-2.8,6.19V688.04z M453.3,262.76l52.03,15.95c2.84,0.87,2.8,4.9-0.06,5.71
		l-47.44,13.52c-2.66,0.76-4.83-2.21-3.3-4.52l22.45-33.73c1.57-2.37,5.25-1.4,5.45,1.44l2.96,41.45c0.21,2.91-3.46,4.35-5.29,2.08
		l-30-37.19C448.26,265.19,450.49,261.9,453.3,262.76z M299.28,144.68c-5.55,0.13-11.35,19.87-12.06,39.01
		c-0.83,22.39,6.19,29.53,11.62,65.46c2.22,14.64-2.18,33.09-6.04,42.48c-5.72,13.95-21.18,24.89-41.15,23.1
		c-14.69-1.31-27.91-7.1-33.59-17.98c-11.81-22.62-4.97-63.45-21.04-65.44c-2.33-0.29-4.38,8.26-10.18,21.75
		c0,0-4.94,11.47-16.41,31.02c-14.08,23.98-21.1,25.07-34.07,44.88c-15.49,23.63-20.81,45.46-21.99,50.6
		c-2.82,12.26-12.75,54.94,6.57,69.64c8.73,6.65,23.24,8.03,46.66-0.88c23.1-8.78,80.27-79.4,179.22-127.03
		c70.88-34.13,89.99-36.35,89.75-39.26c-0.5-5.97-33.77,0.96-55.12-18.16c-3.11-2.79-19.81-27.56-24.24-33.72
		c-5.54-7.7-6.74-7.59-16.57-18.99c-7.99-9.26-16.1-18.68-22.89-29.61C303.94,159.36,304.1,144.57,299.28,144.68z M440.51,301.62
		c1.71,2.43-5.66,6.79-10.06,19c-8.28,22.97,5.01,42.99,11.17,65.21c9.51,34.3,0.04,65.43-4.65,78.99
		c-12.23,35.34-61.66,96.69-140.1,102.22c-19.99,1.41-68.29,4.82-86.49-23.23c-22.6-34.81,17.65-92.63,26.34-104.55
		c0.46-0.62,0.77-1.05,1.18-1.6c26.73-36.02,57.11-56.29,77.15-69.11C338.6,353.47,434.29,292.77,440.51,301.62z"/>
</g>
</svg>
